HIERARCHY
ROOT Hips
{
	OFFSET 0.00000 0.00000 0.00000
	CHANNELS 6 Xposition Yposition Zposition Zrotation Yrotation Xrotation 
	JOINT LHipJoint
	{
		OFFSET 0 0 0
		CHANNELS 3 Zrotation Yrotation Xrotation
		JOINT LeftUpLeg
		{
			OFFSET 1.39187 -1.60231 0.69152
			CHANNELS 3 Zrotation Yrotation Xrotation
			JOINT LeftLeg
			{
				OFFSET 2.43314 -6.68499 0.00000
				CHANNELS 3 Zrotation Yrotation Xrotation
				JOINT LeftFoot
				{
					OFFSET 2.32059 -6.37578 0.00000
					CHANNELS 3 Zrotation Yrotation Xrotation
					JOINT LeftToeBase
					{
						OFFSET 0.23021 -0.63250 1.71305
						CHANNELS 3 Zrotation Yrotation Xrotation
						End Site
						{
							OFFSET 0.00000 -0.00000 0.91647
						}
					}
				}
			}
		}
	}
	JOINT RHipJoint
	{
		OFFSET 0 0 0
		CHANNELS 3 Zrotation Yrotation Xrotation
		JOINT RightUpLeg
		{
			OFFSET -1.19407 -1.60231 0.69152
			CHANNELS 3 Zrotation Yrotation Xrotation
			JOINT RightLeg
			{
				OFFSET -2.44411 -6.71513 0.00000
				CHANNELS 3 Zrotation Yrotation Xrotation
				JOINT RightFoot
				{
					OFFSET -2.31924 -6.37207 0.00000
					CHANNELS 3 Zrotation Yrotation Xrotation
					JOINT RightToeBase
					{
						OFFSET -0.19473 -0.53502 1.87724
						CHANNELS 3 Zrotation Yrotation Xrotation
						End Site
						{
							OFFSET -0.00000 -0.00000 0.98293
						}
					}
				}
			}
		}
	}
	JOINT LowerBack
	{
		OFFSET 0 0 0
		CHANNELS 3 Zrotation Yrotation Xrotation
		JOINT Spine
		{
			OFFSET -0.01120 1.87307 0.09613
			CHANNELS 3 Zrotation Yrotation Xrotation
			JOINT Spine1
			{
				OFFSET 0.01099 1.87818 0.04834
				CHANNELS 3 Zrotation Yrotation Xrotation
				JOINT Neck
				{
					OFFSET 0 0 0
					CHANNELS 3 Zrotation Yrotation Xrotation
					JOINT Neck1
					{
						OFFSET 0.01702 1.40324 -0.12579
						CHANNELS 3 Zrotation Yrotation Xrotation
						JOINT Head
						{
							OFFSET -0.04239 1.38587 -0.01614
							CHANNELS 3 Zrotation Yrotation Xrotation
							End Site
							{
								OFFSET -0.02510 1.47031 -0.00154
							}
						}
					}
				}
				JOINT LeftShoulder
				{
					OFFSET 0 0 0
					CHANNELS 3 Zrotation Yrotation Xrotation
					JOINT LeftArm
					{
						OFFSET 2.95699 0.62343 0.11653
						CHANNELS 3 Zrotation Yrotation Xrotation
						JOINT LeftForeArm
						{
							OFFSET 4.68382 -0.00000 -0.00000
							CHANNELS 3 Zrotation Yrotation Xrotation
							JOINT LeftHand
							{
								OFFSET 2.98124 -0.00000 -0.00000
								CHANNELS 3 Zrotation Yrotation Xrotation
								JOINT LeftFingerBase
								{
									OFFSET 0 0 0
									CHANNELS 3 Zrotation Yrotation Xrotation
									JOINT LeftHandIndex1
									{
										OFFSET 0.70759 -0.00000 0.00000
										CHANNELS 3 Zrotation Yrotation Xrotation
										End Site
										{
											OFFSET 0.57048 -0.00000 0.00000
										}
									}
								}
								JOINT LThumb
								{
									OFFSET 0 0 0
									CHANNELS 3 Zrotation Yrotation Xrotation
									End Site
									{
										OFFSET 0.57919 -0.00000 0.57919
									}
								}
							}
						}
					}
				}
				JOINT RightShoulder
				{
					OFFSET 0 0 0
					CHANNELS 3 Zrotation Yrotation Xrotation
					JOINT RightArm
					{
						OFFSET -2.99027 0.88714 -0.02793
						CHANNELS 3 Zrotation Yrotation Xrotation
						JOINT RightForeArm
						{
							OFFSET -4.75876 -0.00000 -0.00000
							CHANNELS 3 Zrotation Yrotation Xrotation
							JOINT RightHand
							{
								OFFSET -2.93293 -0.00000 -0.00000
								CHANNELS 3 Zrotation Yrotation Xrotation
								JOINT RightFingerBase
								{
									OFFSET 0 0 0
									CHANNELS 3 Zrotation Yrotation Xrotation
									JOINT RightHandIndex1
									{
										OFFSET -0.83175 -0.00000 0.00000
										CHANNELS 3 Zrotation Yrotation Xrotation
										End Site
										{
											OFFSET -0.67058 -0.00000 0.00000
										}
									}
								}
								JOINT RThumb
								{
									OFFSET 0 0 0
									CHANNELS 3 Zrotation Yrotation Xrotation
									End Site
									{
										OFFSET -0.68082 -0.00000 0.68082
									}
								}
							}
						}
					}
				}
			}
		}
	}
}
MOTION
Frames: 10
Frame Time: 0.0384615
0.00 0.00 0.00 0 0 0 0 0 0 -21 0 0 0 0 0 0 0 0 0 0 0 0 0 0 21 0 0 0 0 0 0 0 0 0 0 0 0 0 0 0 0 0 0 0 0 0 0 -16 0 0 21 0 0 11 0 0 0 -8 0 0 0 0 0 0 0 0 0 0 0 0 0 0 0 0 0 0 0 0 8 0 0 0 0 0 0 0 0 0 0 0 0 0 0 0 0 0
0.00 0.00 0.00 -146.2330 -85.3451 -193.3390 0.0000 0.0000 0.0000 -5.4143 -10.5542 -37.8886 4.4576 12.7457 38.4238 0.5982 -3.9329 -13.8036 0.5113 -4.5835 -12.7243 0.0000 0.0000 0.0000 19.8348 20.6031 -20.0623 -1.7026 -8.2171 23.3754 2.4590 -26.7853 -15.1878 -0.2353 3.1218 -8.6181 0.5096 0.5320 -6.9790 1.1956 0.6000 -1.3948 0.9985 0.2834 2.4655 -1.9493 -1.4994 -8.8019 -0.0099 -1.9248 16.3158 0.1555 -1.1197 6.4262 -0.0000 -0.0000 0.0000 -98.1546 -15.5797 -10.2549 3.7913 -6.5335 -0.2165 -0.0000 -0.0000 68.9228 23.4941 24.5237 10.2277 -7.1250 0.0000 -0.0000 -6.5294 56.3096 -1.8163 -0.0000 -0.0000 0.0000 95.5573 8.7232 7.0462 -7.6125 12.9228 -0.8634 0.0000 0.0000 36.1398 -17.1437 10.2675 -3.1472 7.1250 -0.0000 -0.0000 7.0055 -19.2881 4.3305
0.00 0.00 0.00 -169.1840 -77.5809 -153.1850 0.0000 0.0000 0.0000 -5.6400 -10.8350 -60.1852 5.1399 13.5396 41.4235 0.2449 -2.0468 -8.8606 0.3786 -3.9518 -10.9411 0.0000 0.0000 0.0000 3.8027 29.1760 -42.4608 -1.4697 -7.6610 21.6890 2.1378 -24.8638 -8.1403 -0.5403 4.7098 -13.0826 -0.6948 1.2023 2.8016 0.5640 1.5630 1.5510 0.9232 0.7651 -0.0154 -0.0967 1.4436 -11.6655 -4.1538 2.2608 5.1573 -1.2167 0.9029 3.8407 -0.0000 -0.0000 0.0000 -104.0353 -28.3589 32.6511 9.4935 -15.9435 -1.3324 -0.0000 -0.0000 31.2114 15.5803 20.9031 5.6814 -7.1250 0.0000 -0.0000 -13.1170 51.1410 -2.0138 -0.0000 -0.0000 0.0000 98.9199 28.6524 35.9966 -9.9278 16.6266 -1.4542 0.0000 0.0000 16.5319 -23.0653 6.9120 -2.9336 7.1250 -0.0000 -0.0000 2.7168 -22.4764 1.4734
0.00 0.00 0.00 -146.8530 -74.9952 -149.1140 0.0000 0.0000 0.0000 -0.0122 -5.9071 -99.6019 8.8608 16.7173 55.6074 0.3583 -7.2914 -11.0790 0.0347 -1.2018 -3.3042 0.0000 0.0000 0.0000 11.7629 19.8276 -85.8136 -4.1340 -12.3367 36.9336 -0.4613 0.6990 -12.6057 -1.1498 6.8084 -19.1491 -3.1769 3.5867 12.6182 -0.7929 4.0450 4.9738 0.3888 1.8719 -2.0073 -6.2401 0.4431 -12.2417 -1.0518 0.5327 -13.7107 0.7291 0.2792 -2.3664 -0.0000 -0.0000 0.0000 -115.2119 -39.1287 58.2757 30.4263 -41.2560 -11.6897 -0.0000 -0.0000 2.9778 29.0307 28.3467 14.7631 -7.1250 0.0000 -0.0000 -1.8439 61.6458 -0.7471 -0.0000 -0.0000 0.0000 99.8187 67.6817 70.6564 -11.6111 19.2188 -1.9724 0.0000 0.0000 1.7782 -22.7450 3.9993 -1.6748 7.1250 -0.0000 -0.0000 2.9373 -25.6434 1.3785
0.00 0.00 0.00 -145.9560 -80.2426 -142.6780 0.0000 0.0000 0.0000 -2.3409 -7.7511 -112.3763 10.2185 17.5309 60.2162 -0.0064 -15.0025 -10.4644 0.0435 1.3468 3.7036 0.0000 0.0000 0.0000 15.7222 15.6828 -101.0079 -6.7304 -15.1006 47.8472 -1.0550 3.0548 -18.6324 -1.7665 8.3617 -23.8183 -3.0204 4.0156 14.0429 -1.0494 4.5183 5.5985 -0.1007 2.0885 -2.0989 -6.5634 -1.7810 -11.0727 0.4329 -2.7985 -18.9000 1.3239 -1.4433 -4.3226 0.0000 0.0000 0.0000 -121.7497 -36.9664 69.6471 32.0132 -42.5577 -12.7498 -0.0000 0.0000 -9.2737 25.9770 29.1803 13.3633 -7.1250 0.0000 -0.0000 -5.8909 61.7329 -2.4032 0.0000 0.0000 0.0000 92.1787 83.9828 51.2305 -8.4900 14.3440 -1.0703 0.0000 0.0000 11.3341 -26.1592 3.5815 -1.7574 7.1250 -0.0000 -0.0000 0.3501 -25.9907 0.1613
0.00 0.00 0.00 -147.8430 -81.8944 -139.3350 0.0000 0.0000 0.0000 -3.8524 -8.6115 -115.3414 10.5698 17.7181 61.3765 -0.3720 -18.1150 -8.9888 0.1054 2.0935 5.7642 0.0000 0.0000 0.0000 15.2714 14.4937 -104.2238 -7.4474 -15.6973 50.5467 -1.1869 4.1270 -19.6389 -1.1095 6.6922 -18.8066 -2.4082 3.8020 15.3714 -1.6235 4.2260 5.7044 -1.0699 1.9501 -2.6004 -6.3449 -2.3544 -10.8751 1.8065 -3.5203 -20.8056 1.6870 -1.8988 -4.4291 -0.0000 0.0000 0.0000 -121.7111 -35.9792 70.6639 32.7609 -43.1455 -13.2583 -0.0000 0.0000 -9.0077 26.6790 29.5928 13.9362 -7.1250 0.0000 -0.0000 -5.2774 62.3432 -2.2281 -0.0000 0.0000 0.0000 73.3040 88.9337 27.2008 -7.5247 12.7795 -0.8439 0.0000 0.0000 17.9933 -25.4398 2.6234 -1.2473 7.1250 -0.0000 -0.0000 0.8850 -27.0749 0.3852
0.00 0.00 0.00 -149.1560 -82.7363 -137.0970 0.0000 0.0000 0.0000 -4.7507 -9.0735 -117.2524 10.8476 17.8597 62.2858 -0.5744 -19.5692 -8.2224 0.1938 2.8353 7.8206 0.0000 0.0000 0.0000 15.7778 13.8604 -106.3275 -7.9087 -16.0517 52.2331 -1.2905 4.4830 -20.4654 -1.1066 6.6836 -18.7813 -2.2823 4.1691 15.3117 -1.2799 4.7480 5.5819 -0.8745 2.2099 -2.7179 -8.1897 -3.3046 -9.5254 3.2503 -4.6280 -21.6262 2.4923 -2.3818 -4.7753 0.0000 0.0000 0.0000 -123.3669 -34.0772 71.3760 33.2542 -43.5245 -13.5968 -0.0000 0.0000 -6.7288 25.7107 30.1216 13.5842 -7.1250 0.0000 -0.0000 -6.7328 62.6357 -2.8916 0.0000 0.0000 0.0000 -20.7719 87.5382 -66.8292 -7.2154 12.2733 -0.7768 0.0000 0.0000 19.6593 -27.2728 2.8783 -1.4829 7.1250 -0.0000 -0.0000 -0.5127 -26.7421 -0.2272
0.00 0.00 0.00 -163.0230 -85.6036 -120.7220 0.0000 0.0000 0.0000 -8.1642 -11.2552 -122.6672 11.8143 18.3111 65.3991 -1.4067 -24.5295 -5.4799 0.6907 5.3132 14.8041 0.0000 0.0000 0.0000 14.4448 11.7296 -112.2695 -9.5762 -17.1645 58.0623 -1.5662 2.5215 -22.9854 -1.1219 6.7282 -18.9125 -1.8085 4.7022 16.0965 -0.4345 5.5158 5.6198 -0.4520 2.5802 -3.1369 -9.6083 -4.3569 -5.4396 4.0508 -6.5427 -26.4448 3.2862 -3.2548 -6.8142 0.0000 0.0000 0.0000 -126.0294 -30.7850 73.1085 34.6079 -44.5301 -14.5377 -0.0000 -0.0000 0.8865 28.6090 26.8038 13.8177 -7.1250 0.0000 -0.0000 -1.7202 59.8912 -0.6253 0.0000 0.0000 0.0000 -52.0797 79.3754 -101.2846 -6.4931 11.0820 -0.6306 0.0000 0.0000 26.8403 -31.4211 2.4440 -1.4923 7.1250 -0.0000 -0.0000 -3.6997 -27.1117 -1.6102
0.00 0.00 0.00 -236.5410 -86.5017 -43.0378 0.0000 0.0000 0.0000 -11.7518 -15.3261 -130.8344 13.7127 19.0246 71.3253 -2.7157 -30.7244 -2.7181 1.7774 8.3861 23.8932 0.0000 0.0000 0.0000 12.5825 7.8677 -123.1303 -13.2406 -18.8673 69.8712 -2.1042 0.1931 -27.4162 -1.0926 6.6426 -18.6608 -0.6877 5.0884 16.9090 -0.2339 6.1934 5.5175 -1.0638 2.9178 -3.5832 -6.5877 -6.4917 -3.7530 2.5262 -10.5159 -31.1159 2.7301 -5.4373 -8.7219 0.0000 0.0000 0.0000 -129.9714 -32.2044 76.2612 33.4284 -43.6568 -13.7169 -0.0000 -0.0000 5.6744 29.2573 31.7917 16.4428 -7.1250 0.0000 -0.0000 -3.3080 65.3433 -1.6272 0.0000 0.0000 0.0000 -65.4547 65.7337 -138.4243 -5.4144 9.2819 -0.4398 0.0000 0.0000 51.9243 -35.2934 1.0139 -0.7176 7.1250 -0.0000 -0.0000 -6.7813 -28.7108 -2.7072
0.00 0.00 0.00 -235.8290 -87.2320 -39.8084 0.0000 0.0000 0.0000 -11.1623 -14.6888 -138.0677 15.7144 19.5538 77.3797 -2.3297 -31.2160 -7.2562 1.7866 8.4067 23.9565 0.0000 0.0000 0.0000 15.7344 9.0700 -130.5528 -15.5856 -19.5262 76.9947 -2.7189 1.9719 -30.7159 -1.0720 6.5819 -18.4824 -1.0389 5.3635 18.9610 0.8915 6.6053 3.7560 -0.0585 3.1075 -6.7264 -7.1278 -6.5343 -2.6845 1.6651 -11.1201 -32.2222 2.6821 -5.5872 -9.3407 -0.0000 0.0000 0.0000 -140.2186 -40.3405 80.7186 35.2344 -44.9788 -14.9788 -0.0000 0.0000 -4.0918 31.3325 28.9938 16.4407 -7.1250 0.0000 -0.0000 0.7347 62.9532 0.3203 -0.0000 0.0000 0.0000 -63.3726 64.3639 -101.8048 -9.1809 15.4482 -1.2479 0.0000 0.0000 17.1290 -38.7642 0.0225 -0.0181 7.1250 -0.0000 -0.0000 -9.5809 -29.8806 -3.5792
